<svg width="254" height="79" viewBox="0 0 254 79" fill="none" xmlns="http://www.w3.org/2000/svg">
<path d="M80.7193 33V13.2182H88.5239C90.0242 13.2182 91.3025 13.5047 92.3585 14.0778C93.4146 14.6445 94.2195 15.4333 94.7733 16.4443C95.3335 17.4489 95.6136 18.608 95.6136 19.9216C95.6136 21.2352 95.3303 22.3943 94.7636 23.3989C94.197 24.4034 93.3759 25.1858 92.3006 25.746C91.2316 26.3062 89.9373 26.5864 88.4176 26.5864H83.4432V23.2347H87.7415C88.5464 23.2347 89.2097 23.0962 89.7313 22.8193C90.2593 22.536 90.6521 22.1464 90.9097 21.6506C91.1737 21.1483 91.3057 20.572 91.3057 19.9216C91.3057 19.2648 91.1737 18.6917 90.9097 18.2023C90.6521 17.7064 90.2593 17.3233 89.7313 17.0528C89.2032 16.7759 88.5335 16.6375 87.7222 16.6375H84.9017V33H80.7193ZM98.3303 33V13.2182H106.135C107.629 13.2182 108.904 13.4854 109.96 14.0199C111.022 14.5479 111.83 15.2981 112.384 16.2705C112.944 17.2364 113.225 18.3729 113.225 19.6801C113.225 20.9937 112.941 22.1239 112.375 23.0705C111.808 24.0106 110.987 24.7318 109.912 25.2341C108.843 25.7364 107.548 25.9875 106.029 25.9875H100.803V22.6261H105.352C106.151 22.6261 106.814 22.5167 107.342 22.2977C107.87 22.0788 108.263 21.7504 108.521 21.3125C108.785 20.8746 108.917 20.3305 108.917 19.6801C108.917 19.0233 108.785 18.4695 108.521 18.0187C108.263 17.568 107.867 17.2267 107.333 16.9949C106.804 16.7566 106.138 16.6375 105.333 16.6375H102.513V33H98.3303ZM109.013 23.9977L113.93 33H109.313L104.502 23.9977H109.013ZM119.59 33H115.108L121.937 13.2182H127.327L134.146 33H129.664L124.709 17.7386H124.555L119.59 33ZM119.31 25.2244H129.896V28.4892H119.31V25.2244ZM123.154 11.3057L125.202 6.91079H129.008L126.062 11.3057H123.154ZM133.357 16.6665V13.2182H149.603V16.6665H143.547V33H139.413V16.6665H133.357ZM156.461 13.2182V33H152.279V13.2182H156.461ZM177.356 20.1437H173.125C173.048 19.5964 172.89 19.1102 172.652 18.6852C172.414 18.2538 172.108 17.8867 171.735 17.5841C171.361 17.2814 170.93 17.0496 170.44 16.8886C169.957 16.7277 169.432 16.6472 168.866 16.6472C167.842 16.6472 166.95 16.9015 166.19 17.4102C165.43 17.9125 164.841 18.6466 164.423 19.6125C164.004 20.572 163.795 21.7375 163.795 23.1091C163.795 24.5193 164.004 25.7042 164.423 26.6636C164.848 27.6231 165.44 28.3475 166.2 28.8369C166.96 29.3263 167.839 29.571 168.837 29.571C169.397 29.571 169.915 29.497 170.392 29.3489C170.875 29.2008 171.303 28.985 171.677 28.7017C172.05 28.4119 172.359 28.061 172.604 27.6489C172.855 27.2367 173.029 26.7667 173.125 26.2386L177.356 26.258C177.247 27.1659 176.973 28.0417 176.535 28.8852C176.104 29.7223 175.521 30.4725 174.787 31.1358C174.059 31.7926 173.19 32.3142 172.179 32.7006C171.174 33.0805 170.038 33.2705 168.769 33.2705C167.005 33.2705 165.427 32.8712 164.036 32.0727C162.652 31.2742 161.557 30.1184 160.752 28.6051C159.954 27.0919 159.554 25.2598 159.554 23.1091C159.554 20.9519 159.96 19.1167 160.771 17.6034C161.583 16.0902 162.684 14.9375 164.075 14.1455C165.466 13.347 167.031 12.9477 168.769 12.9477C169.915 12.9477 170.978 13.1087 171.957 13.4307C172.942 13.7527 173.814 14.2227 174.574 14.8409C175.334 15.4526 175.952 16.2028 176.429 17.0915C176.912 17.9801 177.221 18.9975 177.356 20.1437ZM183.393 33H178.911L185.74 13.2182H191.13L197.949 33H193.467L188.512 17.7386H188.358L183.393 33ZM183.113 25.2244H193.699V28.4892H183.113V25.2244ZM80.7193 66V46.2182H84.9017V62.5517H93.3824V66H80.7193ZM100.066 66H95.5847L102.414 46.2182H107.803L114.623 66H110.141L105.186 50.7386H105.031L100.066 66ZM99.7864 58.2244H110.373V61.4892H99.7864V58.2244ZM118.107 46.2182L122.888 61.2477H123.072L127.863 46.2182H132.499L125.68 66H120.29L113.461 46.2182H118.107ZM135.66 66H131.178L138.007 46.2182H143.397L150.216 66H145.735L140.78 50.7386H140.625L135.66 66ZM135.38 58.2244H145.966V61.4892H135.38V58.2244ZM169.143 46.2182V66H165.531L156.925 53.5494H156.78V66H152.597V46.2182H156.268L164.807 58.6591H164.98V46.2182H169.143ZM179.612 66H172.599V46.2182H179.669C181.659 46.2182 183.372 46.6142 184.808 47.4062C186.244 48.1919 187.348 49.322 188.121 50.7966C188.9 52.2712 189.29 54.0356 189.29 56.0898C189.29 58.1504 188.9 59.9212 188.121 61.4023C187.348 62.8833 186.238 64.0199 184.789 64.8119C183.346 65.604 181.621 66 179.612 66ZM176.781 62.4165H179.438C180.674 62.4165 181.714 62.1975 182.558 61.7597C183.408 61.3153 184.045 60.6295 184.47 59.7023C184.901 58.7686 185.117 57.5644 185.117 56.0898C185.117 54.628 184.901 53.4335 184.47 52.5062C184.045 51.579 183.411 50.8964 182.567 50.4585C181.724 50.0206 180.684 49.8017 179.447 49.8017H176.781V62.4165ZM192.388 66V46.2182H205.718V49.6665H196.57V54.3801H205.032V57.8284H196.57V62.5517H205.756V66H192.388ZM209.043 66V46.2182H216.847C218.341 46.2182 219.616 46.4854 220.672 47.0199C221.735 47.5479 222.543 48.2981 223.097 49.2705C223.657 50.2364 223.937 51.3729 223.937 52.6801C223.937 53.9937 223.654 55.1239 223.087 56.0705C222.52 57.0106 221.699 57.7318 220.624 58.2341C219.555 58.7364 218.261 58.9875 216.741 58.9875H211.515V55.6261H216.065C216.863 55.6261 217.527 55.5167 218.055 55.2977C218.583 55.0788 218.976 54.7504 219.233 54.3125C219.497 53.8746 219.629 53.3305 219.629 52.6801C219.629 52.0233 219.497 51.4695 219.233 51.0187C218.976 50.568 218.58 50.2267 218.045 49.9949C217.517 49.7566 216.851 49.6375 216.046 49.6375H213.225V66H209.043ZM219.726 56.9977L224.642 66H220.025L215.215 56.9977H219.726ZM231.075 46.2182V66H226.893V46.2182H231.075ZM237.926 66H233.444L240.273 46.2182H245.663L252.482 66H248L243.045 50.7386H242.891L237.926 66ZM237.646 58.2244H248.232V61.4892H237.646V58.2244Z" fill="#457B9D"/>
<g clip-path="url(#clip0_13_105)">
<path d="M30.1846 55.3988C35.3196 60.5338 43.6804 60.5338 48.8154 55.3988C53.9504 50.2638 53.9504 41.9029 48.8154 36.7679L30.1846 55.3988ZM59.25 6.61625L19.75 6.58334C16.0962 6.58334 13.1667 9.51292 13.1667 13.1667V65.8333C13.1667 69.4871 16.0962 72.4167 19.75 72.4167H59.25C62.9037 72.4167 65.8333 69.4871 65.8333 65.8333V13.1667C65.8333 9.51292 62.9037 6.61625 59.25 6.61625ZM32.9167 13.1667C34.7271 13.1667 36.2083 14.6479 36.2083 16.4583C36.2083 18.2688 34.7271 19.75 32.9167 19.75C31.1062 19.75 29.625 18.2688 29.625 16.4583C29.625 14.6479 31.1062 13.1667 32.9167 13.1667ZM23.0417 13.1667C24.8521 13.1667 26.3333 14.6479 26.3333 16.4583C26.3333 18.2688 24.8521 19.75 23.0417 19.75C21.2312 19.75 19.75 18.2688 19.75 16.4583C19.75 14.6479 21.2312 13.1667 23.0417 13.1667ZM39.5 65.8333C28.6046 65.8333 19.75 56.9788 19.75 46.0833C19.75 35.1879 28.6046 26.3333 39.5 26.3333C50.3954 26.3333 59.25 35.1879 59.25 46.0833C59.25 56.9788 50.3954 65.8333 39.5 65.8333Z" fill="#457B9D"/>
</g>
<defs>
<clipPath id="clip0_13_105">
<rect width="79" height="79" fill="white"/>
</clipPath>
</defs>
</svg>
